<svg version="1.0" xmlns="http://www.w3.org/2000/svg"
 width="512.000000pt" height="512.000000pt" viewBox="0 0 512.000000 512.000000"
 preserveAspectRatio="xMidYMid meet">
<g transform="translate(0.000000,512.000000) scale(0.100000,-0.100000)"
fill="#000000" stroke="none">
<path d="M0 3985 l0 -285 2560 0 2560 0 0 285 0 285 -2560 0 -2560 0 0 -285z"/>
<path d="M0 2560 l0 -280 1705 0 1705 0 0 280 0 280 -1705 0 -1705 0 0 -280z"/>
<path d="M0 1135 l0 -285 853 2 852 3 3 283 2 282 -855 0 -855 0 0 -285z"/>
</g>
</svg>
